<?xml version="1.0" standalone="no"?>
<!DOCTYPE svg PUBLIC "-//W3C//DTD SVG 20010904//EN"
 "http://www.w3.org/TR/2001/REC-SVG-20010904/DTD/svg10.dtd">
<svg version="1.0" xmlns="http://www.w3.org/2000/svg"
 width="227.000000pt" height="227.000000pt" viewBox="0 0 227.000000 227.000000"
 preserveAspectRatio="xMidYMid meet">
<metadata>
Created by potrace 1.14, written by Peter Selinger 2001-2017
</metadata>
<g transform="translate(0.000000,227.000000) scale(0.100000,-0.100000)"
fill="#000000" stroke="none">
<path d="M695 1333 c-37 -7 -100 -59 -123 -101 -30 -53 -24 -70 21 -67 26 2
44 12 67 38 35 40 93 57 130 37 19 -10 20 -14 7 -28 -32 -39 -30 -41 44 -39
84 3 87 7 82 95 -3 64 -8 73 -27 46 -14 -18 -15 -18 -53 0 -36 18 -105 26
-148 19z"/>
<path d="M974 1332 c-6 -4 -10 -61 -10 -149 l1 -143 27 0 c26 0 28 3 29 43 1
23 1 47 0 53 -1 12 27 40 33 33 1 -2 22 -32 45 -66 l43 -62 64 0 63 1 17 43
c16 43 16 44 64 42 48 -1 49 -2 65 -44 14 -37 21 -43 46 -43 16 0 29 4 29 9 0
5 -20 62 -45 128 -25 65 -45 123 -45 130 0 17 -35 34 -62 30 -24 -4 -45 -50
-99 -214 -11 -35 -24 -65 -28 -67 -4 -3 -33 31 -64 74 l-56 80 49 56 c28 32
50 61 50 66 0 4 -12 8 -27 8 -19 0 -40 -14 -75 -52 -26 -29 -48 -56 -48 -60 0
-5 -4 -8 -8 -8 -5 0 -9 22 -9 49 -1 66 -16 86 -49 63z m399 -116 l15 -44 -36
2 c-21 1 -36 4 -36 6 21 72 28 89 35 85 4 -3 14 -25 22 -49z"/>
<path d="M1580 1333 c-27 -11 -49 -38 -54 -67 -4 -23 1 -35 28 -62 19 -19 43
-34 53 -34 27 0 64 -37 56 -56 -9 -23 -42 -32 -87 -22 -38 8 -55 1 -56 -24 0
-14 41 -29 81 -30 78 -1 132 43 123 101 -6 35 -22 50 -80 76 -59 26 -72 48
-43 69 15 10 30 11 57 5 25 -5 39 -4 44 4 12 19 9 34 -8 41 -19 7 -94 7 -114
-1z"/>
<path d="M549 1148 c-5 -19 -6 -38 -1 -38 22 0 82 22 82 30 0 8 -78 15 -81 8z"/>
<path d="M578 1098 c-31 -11 -35 -25 -15 -53 13 -17 15 -17 50 6 28 20 33 28
26 42 -11 19 -22 20 -61 5z"/>
<path d="M623 1036 c-18 -11 -33 -26 -33 -32 0 -10 59 -59 64 -52 1 1 9 19 18
40 16 34 16 37 0 51 -15 13 -21 12 -49 -7z"/>
<path d="M695 987 c-9 -21 -13 -42 -10 -47 9 -14 35 -12 36 3 1 6 3 22 4 34 5
43 -13 49 -30 10z"/>
<path d="M740 972 c0 -35 3 -42 19 -42 11 0 23 5 26 10 4 7 12 7 25 0 24 -13
50 -3 50 19 0 13 4 11 18 -6 23 -30 62 -27 62 4 0 15 -4 21 -14 17 -9 -3 -12
-12 -9 -21 4 -11 2 -14 -8 -11 -8 2 -15 14 -17 26 -3 18 2 22 25 22 21 0 24 3
13 10 -10 6 -22 4 -39 -6 -15 -10 -26 -12 -30 -6 -16 26 -71 11 -71 -19 0 -10
-4 -19 -10 -19 -5 0 -13 0 -17 0 -5 0 -9 12 -10 26 -3 44 -13 40 -13 -4z m104
9 c4 -5 3 -16 0 -25 -5 -12 -10 -13 -25 -6 -10 6 -16 17 -13 25 7 17 30 20 38
6z"/>
<path d="M998 1003 c-22 -5 -24 -29 -3 -37 8 -3 15 -10 15 -16 0 -6 -4 -9 -9
-5 -5 3 -12 1 -16 -5 -3 -5 3 -10 14 -10 31 0 37 21 11 42 -17 14 -19 18 -6
18 9 0 16 5 16 10 0 6 -1 9 -2 9 -2 -1 -11 -3 -20 -6z"/>
<path d="M1039 999 c-7 -4 -5 -9 6 -13 11 -4 14 -12 10 -25 -3 -11 -1 -22 5
-26 6 -4 10 6 10 24 0 22 5 31 16 31 12 0 15 -7 12 -30 -3 -16 -1 -30 4 -30 4
0 8 10 8 22 l0 22 16 -22 c15 -21 62 -33 49 -12 -4 6 -10 8 -15 5 -11 -7 -32
30 -23 39 3 3 15 6 27 6 15 0 17 3 8 12 -9 9 -16 8 -30 -5 -20 -18 -37 -23
-28 -8 7 11 -60 20 -75 10z"/>
<path d="M1195 992 c-5 -14 10 -31 28 -32 5 0 6 -4 2 -10 -3 -5 -13 -6 -22 -3
-11 4 -14 3 -9 -5 10 -17 36 -15 43 4 4 10 -1 20 -13 27 -18 10 -18 10 1 17
18 6 18 7 -2 12 -14 4 -24 0 -28 -10z"/>
<path d="M1280 990 c-8 -15 -6 -20 10 -25 11 -4 18 -11 14 -16 -3 -5 -10 -7
-15 -4 -5 4 -9 1 -9 -4 0 -17 30 -13 37 5 4 10 -1 22 -11 30 -16 12 -16 12 1
16 17 3 17 4 1 10 -12 5 -21 1 -28 -12z"/>
<path d="M1348 1003 c-12 -3 -16 -12 -14 -26 3 -12 5 -28 5 -34 1 -15 41 -18
41 -3 0 6 -3 9 -7 8 -5 -2 -8 2 -8 7 0 6 3 9 8 8 4 -2 7 2 7 8 0 6 -7 9 -15 5
-8 -3 -15 -1 -15 4 0 5 8 10 18 12 9 2 13 6 7 9 -5 3 -18 4 -27 2z"/>
<path d="M1408 1003 c-11 -3 -16 -14 -16 -34 1 -26 18 -44 18 -19 0 6 5 10 10
10 6 0 10 -7 10 -15 0 -8 4 -15 8 -15 9 0 3 69 -7 73 -3 2 -14 2 -23 0z m22
-23 c0 -5 -4 -10 -10 -10 -5 0 -10 5 -10 10 0 6 5 10 10 10 6 0 10 -4 10 -10z"/>
<path d="M1562 998 c-7 -7 -12 -22 -12 -34 0 -27 36 -42 54 -24 8 10 7 12 -6
7 -24 -8 -44 18 -28 37 6 8 19 12 28 9 15 -4 15 -3 2 6 -19 14 -23 14 -38 -1z"/>
<path d="M1623 994 c-11 -29 2 -59 26 -60 22 -1 23 0 8 11 -22 16 -22 26 1 19
9 -3 6 2 -8 10 -19 12 -21 15 -7 16 21 0 23 17 1 17 -9 0 -18 -6 -21 -13z"/>
<path d="M1682 992 c-3 -8 2 -20 12 -27 15 -12 15 -13 0 -19 -9 -4 -14 -9 -11
-12 3 -3 16 0 28 7 l23 12 -23 18 c-18 15 -19 19 -7 19 9 0 16 4 16 8 0 15
-32 9 -38 -6z"/>
<path d="M952 970 c0 -16 4 -30 9 -30 5 0 9 14 9 30 0 17 -4 30 -8 30 -5 0 -9
-13 -10 -30z"/>
<path d="M1450 985 c0 -8 5 -15 10 -15 6 0 10 -9 10 -20 0 -27 27 -15 34 16 8
29 27 23 21 -6 -2 -11 0 -20 6 -20 5 0 9 14 9 30 0 23 -4 30 -20 30 -12 0 -25
-10 -30 -22 l-9 -23 -7 23 c-7 25 -24 30 -24 7z"/>
</g>
</svg>
